<svg width="24" height="24" viewBox="0 0 24 24" fill="none" xmlns="http://www.w3.org/2000/svg">
<path fill-rule="evenodd" clip-rule="evenodd" d="M12 2C17.514 2 22 6.486 22 12C22 17.514 17.514 22 12 22C6.486 22 2 17.514 2 12C2 6.486 6.486 2 12 2ZM12 3.5C7.313 3.5 3.5 7.313 3.5 12C3.5 16.687 7.313 20.5 12 20.5C16.687 20.5 20.5 16.687 20.5 12C20.5 7.313 16.687 3.5 12 3.5Z" fill="#29d882"/>
<path fill-rule="evenodd" clip-rule="evenodd" d="M16.0894 9.09701C16.3824 9.39001 16.3824 9.86401 16.0894 10.157L11.3434 14.903C11.1974 15.05 11.0054 15.123 10.8134 15.123C10.6224 15.123 10.4294 15.05 10.2834 14.903L7.90945 12.53C7.61645 12.237 7.61645 11.763 7.90945 11.47C8.20245 11.177 8.67645 11.177 8.96945 11.47L10.8134 13.312L15.0294 9.09701C15.3224 8.80401 15.7964 8.80401 16.0894 9.09701Z" fill="#29d882"/>
</svg>
