<svg width="24" height="24" viewBox="0 0 24 24" fill="none" xmlns="http://www.w3.org/2000/svg">
<path fill-rule="evenodd" clip-rule="evenodd" d="M20.3077 19.5742C20.6899 19.5742 21 19.8935 21 20.287C21 20.6805 20.6899 20.9998 20.3077 20.9998H13.6128C13.2307 20.9998 12.9205 20.6805 12.9205 20.287C12.9205 19.8935 13.2307 19.5742 13.6128 19.5742H20.3077ZM16.0301 3.62109C16.0762 3.65816 17.6205 4.89366 17.6205 4.89366C18.1817 5.2377 18.6202 5.8526 18.7863 6.5806C18.9516 7.30099 18.8316 8.0442 18.4466 8.6724C18.4441 8.67659 18.4415 8.68073 18.4326 8.69305L18.4257 8.70256C18.3632 8.78734 18.0916 9.14094 16.7208 10.9092C16.7081 10.9324 16.6936 10.9541 16.6779 10.9752C16.6548 11.0063 16.6296 11.0349 16.6028 11.0609C16.5093 11.1821 16.4105 11.3094 16.3067 11.4433L16.0963 11.7146C15.6622 12.2744 15.1473 12.9382 14.5364 13.7254L14.2229 14.1295C13.0435 15.6493 11.5331 17.5952 9.59825 20.0875C9.17456 20.6311 8.5395 20.9476 7.85737 20.9562L4.49837 20.9999H4.48914C4.16884 20.9999 3.89008 20.7737 3.81531 20.4515L3.05933 17.1527C2.90333 16.4694 3.05841 15.7642 3.48393 15.2168L12.1791 4.0193C12.1828 4.0155 12.1856 4.01075 12.1893 4.00695C13.1428 2.83322 14.867 2.66025 16.0301 3.62109ZM11.2096 7.54938L4.56483 16.1073C4.40699 16.3107 4.34884 16.573 4.40699 16.8248L5.03559 19.5667L7.84075 19.5306C8.10751 19.5277 8.35397 19.4051 8.51735 19.196C9.3587 18.1122 10.4161 16.75 11.5033 15.3492L11.8879 14.8536L12.2732 14.3572C13.2928 13.0435 14.3001 11.7454 15.1429 10.6589L11.2096 7.54938ZM13.2554 4.91647L12.0745 6.43553L16.0075 9.54418C16.7645 8.56791 17.2625 7.92492 17.3085 7.86362C17.4599 7.61082 17.519 7.25347 17.4396 6.90943C17.3584 6.55684 17.1451 6.25747 16.8378 6.06644C16.7722 6.01987 15.2169 4.77676 15.1689 4.7378C14.5837 4.255 13.7298 4.33863 13.2554 4.91647Z" fill="#304165"/>
</svg>
