<svg width="24" height="24" viewBox="0 0 24 24" fill="none" xmlns="http://www.w3.org/2000/svg">
<path d="M12.8646 8.45148C12.8646 8.03748 12.5296 7.70148 12.1146 7.70148C11.7006 7.70148 11.3646 8.03748 11.3646 8.45148V13.2995C11.3646 13.5635 11.5046 13.8085 11.7306 13.9445L15.5006 16.1935C15.6216 16.2645 15.7536 16.2985 15.8846 16.2985C16.1396 16.2985 16.3886 16.1675 16.5296 15.9325C16.7416 15.5765 16.6246 15.1165 16.2696 14.9035L12.8646 12.8735V8.45148Z" fill="#304165"/>
<path d="M15.8373 3.66482C14.1884 2.98224 12.3742 2.80402 10.6241 3.1527C8.87419 3.50133 7.267 4.36104 6.00575 5.6231L4.13437 7.48898V8.57568H5.22886L7.0952 6.71484L7.09622 6.71381C8.14191 5.66727 9.4745 4.95437 10.9254 4.6653C12.3763 4.37623 13.8804 4.52398 15.2473 5.08986C16.6143 5.65574 17.7827 6.61431 18.6047 7.84433C19.4268 9.07436 19.8655 10.5206 19.8655 12C19.8655 13.4794 19.4268 14.9256 18.6047 16.1556C17.7827 17.3857 16.6143 18.3442 15.2473 18.9101C13.8804 19.476 12.3763 19.6237 10.9254 19.3347C9.4745 19.0456 8.14191 18.3327 7.09622 17.2862C6.79519 16.9849 6.30691 16.9847 6.00563 17.2857C5.70435 17.5868 5.70415 18.075 6.00519 18.3763C7.26653 19.6387 8.87393 20.4986 10.6241 20.8473C12.3742 21.196 14.1884 21.0177 15.8373 20.3352C17.4861 19.6526 18.8954 18.4963 19.887 17.0126C20.8786 15.529 21.4079 13.7845 21.4079 12C21.4079 10.2155 20.8786 8.47102 19.887 6.98733C18.8954 5.50365 17.4861 4.34739 15.8373 3.66482Z" fill="#304165"/>
<path d="M3.31722 10.1167C3.23813 10.112 3.15963 10.0951 3.08474 10.0662C2.88594 9.98919 2.72702 9.83214 2.64751 9.63459" fill="#304165"/>
<path fill-rule="evenodd" clip-rule="evenodd" d="M3.3632 4.07568C3.78911 4.07568 4.13437 4.42094 4.13437 4.84684V8.57568L7.8632 8.57568C8.28911 8.57568 8.63437 8.92094 8.63437 9.34684C8.63437 9.77275 8.28911 10.118 7.8632 10.118H3.3632C2.9373 10.118 2.59204 9.77275 2.59204 9.34684V4.84684C2.59204 4.42094 2.9373 4.07568 3.3632 4.07568Z" fill="#304165"/>
</svg>
