<svg width="24" height="24" viewBox="0 0 24 24" fill="none" xmlns="http://www.w3.org/2000/svg">
<path fill-rule="evenodd" clip-rule="evenodd" d="M11.0309 14.1208L14.7817 20.2061C14.9458 20.4728 15.2023 20.4697 15.3058 20.4553C15.4094 20.441 15.6587 20.3774 15.7489 20.0748L20.4393 4.23342C20.5214 3.95341 20.3706 3.76263 20.3029 3.69494C20.2372 3.62725 20.0496 3.48263 19.7777 3.55955L3.92506 8.20172C3.62454 8.28992 3.55889 8.54224 3.54454 8.64583C3.53018 8.75147 3.52607 9.01302 3.79172 9.1802L9.94674 13.0295L15.3848 7.53401C15.6833 7.23246 16.1705 7.22939 16.4731 7.52785C16.7756 7.82632 16.7777 8.31454 16.4792 8.61609L11.0309 14.1208ZM15.2258 22C14.512 22 13.8576 21.6369 13.472 21.0133L9.49545 14.5608L2.97632 10.4838C2.27374 10.0438 1.90655 9.2602 2.0204 8.43659C2.13322 7.61298 2.69836 6.95861 3.49223 6.72578L19.3449 2.08362C20.0742 1.87028 20.8557 2.07234 21.3932 2.60774C21.9306 3.14826 22.1306 3.93802 21.9132 4.67035L17.2228 20.5107C16.9879 21.3077 16.3315 21.8708 15.51 21.9805C15.4135 21.9928 15.3202 22 15.2258 22Z" fill="#304165"/>
</svg>
