<svg width="24" height="24" viewBox="0 0 24 24" fill="none" xmlns="http://www.w3.org/2000/svg">
<path fill-rule="evenodd" clip-rule="evenodd" d="M12 2C17.514 2 22 6.486 22 12C22 17.514 17.514 22 12 22C6.486 22 2 17.514 2 12C2 6.486 6.486 2 12 2ZM12 3.5C7.313 3.5 3.5 7.313 3.5 12C3.5 16.687 7.313 20.5 12 20.5C16.687 20.5 20.5 16.687 20.5 12C20.5 7.313 16.687 3.5 12 3.5Z" fill="#ff7452"/>
<path fill-rule="evenodd" clip-rule="evenodd" d="M10.1306 9.06258L11.9981 10.93L13.8646 9.06468C14.1576 8.77168 14.6316 8.77168 14.9246 9.06468C15.2176 9.35768 15.2176 9.83168 14.9246 10.1247L13.0581 11.99L14.9266 13.8596C15.2196 14.1526 15.2196 14.6266 14.9266 14.9196C14.7806 15.0666 14.5876 15.1396 14.3966 15.1396C14.2046 15.1396 14.0126 15.0666 13.8666 14.9196L11.9981 13.05L10.1326 14.9167C9.98658 15.0637 9.79458 15.1367 9.60258 15.1367C9.41058 15.1367 9.21858 15.0637 9.07258 14.9167C8.77958 14.6237 8.77958 14.1497 9.07258 13.8567L10.9381 11.99L9.07058 10.1226C8.77758 9.82958 8.77758 9.35558 9.07058 9.06258C9.36458 8.76958 9.83858 8.76958 10.1306 9.06258Z" fill="#ff7452"/>
</svg>
