<svg width="24" height="24" viewBox="0 0 24 24" fill="none" xmlns="http://www.w3.org/2000/svg">
<path fill-rule="evenodd" clip-rule="evenodd" d="M11.0909 2.90909C11.0909 2.40701 11.498 2 12 2C17.523 2 22 6.47701 22 12C22 17.523 17.523 22 12 22C6.47704 22 2.00003 17.523 2.00003 12C2.00003 11.4979 2.40704 11.0909 2.90912 11.0909C3.4112 11.0909 3.81821 11.4979 3.81821 12C3.81821 16.5188 7.4812 20.1818 12 20.1818C16.5189 20.1818 20.1819 16.5188 20.1819 12C20.1819 7.48117 16.5189 3.81818 12 3.81818C11.498 3.81818 11.0909 3.41117 11.0909 2.90909Z" fill="#8496BC"/>
</svg>
